{
  "asset": {
    "version": "2.0",
    "generator": "Sketchup glTF Exporter v1.2.6 by Centaur"
  },
  "scene": 0,
  "scenes": [
    {
      "nodes": [
        0
      ]
    }
  ],
  "samplers": [
    {
    }
  ],
  "nodes": [
    {
      "name": "root",
      "children": [
        1
      ]
    },
    {
      "name": "TsaiHuiWall.kmz",
      "mesh": 0
    }
  ],
  "materials": [
    {
      "pbrMetallicRoughness": {
        "baseColorFactor": [
          1.0,
          0.8277,
          0.4995,
          1.0
        ],
        "metallicFactor": 0.1,
        "roughnessFactor": 0.9
      },
      "name": "<auto>",
      "doubleSided": true
    },
    {
      "pbrMetallicRoughness": {
        "baseColorTexture": {
          "index": 0
        },
        "metallicFactor": 0.1,
        "roughnessFactor": 0.9
      },
      "name": "<auto>2",
      "doubleSided": true
    },
    {
      "pbrMetallicRoughness": {
        "baseColorTexture": {
          "index": 1
        },
        "metallicFactor": 0.1,
        "roughnessFactor": 0.9
      },
      "name": "<auto>3",
      "doubleSided": true
    },
    {
      "pbrMetallicRoughness": {
        "baseColorTexture": {
          "index": 2
        },
        "metallicFactor": 0.1,
        "roughnessFactor": 0.9
      },
      "name": "<auto>4",
      "doubleSided": true
    },
    {
      "pbrMetallicRoughness": {
        "baseColorTexture": {
          "index": 3
        },
        "metallicFactor": 0.1,
        "roughnessFactor": 0.9
      },
      "name": "<auto>1",
      "doubleSided": true
    }
  ],
  "images": [
    {
      "bufferView": 0,
      "mimeType": "image/jpeg"
    },
    {
      "bufferView": 1,
      "mimeType": "image/png"
    },
    {
      "bufferView": 2,
      "mimeType": "image/png"
    },
    {
      "bufferView": 3,
      "mimeType": "image/png"
    }
  ],
  "textures": [
    {
      "source": 0,
      "sampler": 0
    },
    {
      "source": 1,
      "sampler": 0
    },
    {
      "source": 2,
      "sampler": 0
    },
    {
      "source": 3,
      "sampler": 0
    }
  ],
  "meshes": [
    {
      "primitives": [
        {
          "attributes": {
            "POSITION": 0,
            "NORMAL": 1
          },
          "indices": 5,
          "mode": 4,
          "material": 0
        },
        {
          "attributes": {
            "POSITION": 2,
            "NORMAL": 3,
            "TEXCOORD_0": 4
          },
          "indices": 6,
          "mode": 4,
          "material": 1
        },
        {
          "attributes": {
            "POSITION": 2,
            "NORMAL": 3,
            "TEXCOORD_0": 4
          },
          "indices": 7,
          "mode": 4,
          "material": 2
        },
        {
          "attributes": {
            "POSITION": 2,
            "NORMAL": 3,
            "TEXCOORD_0": 4
          },
          "indices": 8,
          "mode": 4,
          "material": 3
        },
        {
          "attributes": {
            "POSITION": 2,
            "NORMAL": 3,
            "TEXCOORD_0": 4
          },
          "indices": 9,
          "mode": 4,
          "material": 4
        }
      ]
    }
  ],
  "accessors": [
    {
      "bufferView": 4,
      "componentType": 5126,
      "count": 10,
      "type": "VEC3",
      "min": [
        69.45962740000006,
        -6.039796935601256e-15,
        -98.63736940000003
      ],
      "max": [
        84.33211480000006,
        2.818787859999995,
        -93.87258340000004
      ]
    },
    {
      "bufferView": 5,
      "componentType": 5126,
      "count": 10,
      "type": "VEC3",
      "min": [
        -0.10547599881440706,
        -1.0,
        6.123233995736766e-17
      ],
      "max": [
        -7.498798913309288e-33,
        6.089077671609343e-17,
        0.9944218489524972
      ]
    },
    {
      "bufferView": 6,
      "componentType": 5126,
      "count": 34,
      "type": "VEC3",
      "min": [
        69.45962740000006,
        -6.039796935601256e-15,
        -98.63736940000003
      ],
      "max": [
        84.33211480000006,
        2.818787859999995,
        -93.87258340000004
      ]
    },
    {
      "bufferView": 7,
      "componentType": 5126,
      "count": 34,
      "type": "VEC3",
      "min": [
        -0.9955557351145429,
        -6.086742738230163e-17,
        -0.9940405253936058
      ],
      "max": [
        0.9953645928694442,
        1.0,
        0.09617342284563607
      ]
    },
    {
      "bufferView": 8,
      "componentType": 5126,
      "count": 34,
      "type": "VEC2",
      "min": [
        -3.552713678800501e-15,
        -160.8067835056454
      ],
      "max": [
        138.34010003094576,
        1.0000000000000016
      ]
    },
    {
      "bufferView": 9,
      "componentType": 5121,
      "count": 18,
      "type": "SCALAR"
    },
    {
      "bufferView": 10,
      "componentType": 5121,
      "count": 12,
      "type": "SCALAR"
    },
    {
      "bufferView": 10,
      "componentType": 5121,
      "count": 30,
      "type": "SCALAR",
      "byteOffset": 12
    },
    {
      "bufferView": 10,
      "componentType": 5121,
      "count": 6,
      "type": "SCALAR",
      "byteOffset": 42
    },
    {
      "bufferView": 10,
      "componentType": 5121,
      "count": 6,
      "type": "SCALAR",
      "byteOffset": 48
    }
  ],
  "bufferViews": [
    {
      "buffer": 0,
      "byteLength": 8264
    },
    {
      "buffer": 0,
      "byteOffset": 8264,
      "byteLength": 58446
    },
    {
      "buffer": 0,
      "byteOffset": 66710,
      "byteLength": 316865
    },
    {
      "buffer": 0,
      "byteOffset": 383575,
      "byteLength": 152000
    },
    {
      "buffer": 0,
      "byteOffset": 535584,
      "byteLength": 120,
      "target": 34962,
      "byteStride": 12
    },
    {
      "buffer": 0,
      "byteOffset": 535704,
      "byteLength": 120,
      "target": 34962,
      "byteStride": 12
    },
    {
      "buffer": 0,
      "byteOffset": 535824,
      "byteLength": 408,
      "target": 34962,
      "byteStride": 12
    },
    {
      "buffer": 0,
      "byteOffset": 536232,
      "byteLength": 408,
      "target": 34962,
      "byteStride": 12
    },
    {
      "buffer": 0,
      "byteOffset": 536640,
      "byteLength": 272,
      "target": 34962,
      "byteStride": 8
    },
    {
      "buffer": 0,
      "byteOffset": 536912,
      "byteLength": 18,
      "target": 34963
    },
    {
      "buffer": 0,
      "byteOffset": 536930,
      "byteLength": 54,
      "target": 34963
    }
  ],
  "buffers": [
    {
      "uri": "data:application/octet-stream;base64,",
      "byteLength": 536984
    }
  ]
}